<svg id="CIPD_logo" data-name="CIPD logo" xmlns="http://www.w3.org/2000/svg" width="117.875" height="40" viewBox="0 0 117.875 40">
  <path id="Path_26" data-name="Path 26" d="M19.887,33.756c-7.4,0-12.761-6.187-12.761-13.812s5.36-13.7,12.761-13.7c4.422,0,7.735,1.934,10.827,4.806L35.08,6.021A20.164,20.164,0,0,0,19.944,0C8.23,0,0,9,0,20.055,0,31.214,8.4,40,19.667,40c7.237,0,11.658-2.651,15.688-6.852L30.99,28.729c-3.314,3.092-6.351,5.027-11.1,5.027" fill="#3d1152"/>
  <rect id="Rectangle_93" data-name="Rectangle 93" width="6.759" height="38.674" transform="translate(39.001 0.664)" fill="#3d1152"/>
  <path id="Path_27" data-name="Path 27" d="M163.873,1.19H150.114V39.864h13.759c12.155,0,20.553-8.455,20.553-19.392S176.028,1.19,163.873,1.19m0,32.485H156.91V7.378h6.963C172,7.378,177.3,12.96,177.3,20.584S172,33.675,163.873,33.675" transform="translate(-66.551 -0.528)" fill="#3d1152"/>
  <path id="Path_28" data-name="Path 28" d="M106.371,1.19H91.845V39.864h6.8V27.433H105.6c8.506,0,15.468-4.528,15.468-13.26,0-7.9-5.689-12.983-14.7-12.983m-.552,20.054h-3.8l-3.375,3.334V11.7c0-2.648,1.442-4.316,4.354-4.316h2.823c4.617,0,8.342,2.665,8.342,6.825,0,3.758-3.205,7.04-8.342,7.04" transform="translate(-40.718 -0.528)" fill="#3d1152"/>
</svg>
