<svg xmlns="http://www.w3.org/2000/svg" viewBox="0 0 89.05 89.05"><defs><style>.cls-1{fill:#fff;}.cls-2{fill:#8dc63f;}</style></defs><g id="Layer_2" data-name="Layer 2"><g id="Layer_1-2" data-name="Layer 1"><path class="cls-1" d="M44.43,88.5A43.77,43.77,0,1,0,.67,44.73,43.77,43.77,0,0,0,44.43,88.5"/><path class="cls-2" d="M44.52,87.45A42.93,42.93,0,1,1,87.45,44.52,43,43,0,0,1,44.52,87.45M44.52,0A44.53,44.53,0,1,0,89.05,44.52,44.57,44.57,0,0,0,44.52,0m0,4.58A39.94,39.94,0,1,0,84.46,44.52,40,40,0,0,0,44.52,4.58"/><path class="cls-1" d="M64.63,70.51a1.51,1.51,0,0,1-1,.95c-.39.06-.65-.18-.73-.78-.22-1.55.31-2.68,1.27-2.81a1,1,0,0,1,.49,0Zm1.86.6c-.22,0-.34,0-.38-.3,0-.07,0-.16,0-.26l.11-6.21-1.47.21,0,2.21a1.87,1.87,0,0,0-.75,0c-1.79.25-2.91,2-2.59,4.28.17,1.19.89,1.82,1.88,1.68a1.93,1.93,0,0,0,1.49-1.15h0a.94.94,0,0,0,1.16.76,2.75,2.75,0,0,0,.82-.25l0-1-.26.06m-6.27.53a2,2,0,0,1,0-.26l0-2.11a5.3,5.3,0,0,0,0-.59c-.11-.8-.52-1.33-1.45-1.2a2.31,2.31,0,0,0-1.63,1.06l0-.74L55.7,68l-.11,5.69,1.46-.21.08-3.9a1.91,1.91,0,0,1,1.08-.81c.34,0,.5.11.55.48a3.17,3.17,0,0,1,0,.46l-.05,2.18a2,2,0,0,0,0,.35,1,1,0,0,0,1.3.91,2.8,2.8,0,0,0,.8-.25v-1l-.25.06c-.23,0-.34,0-.38-.3m-7.51.56c-.16.4-.46.86-.91.93s-.65-.2-.73-.79c-.2-1.44.28-2.66,1.24-2.8a1.27,1.27,0,0,1,.44,0Zm1.48.28a1.12,1.12,0,0,1,0-.2l.06-3.85a6,6,0,0,0-1.91-.05c-2.09.3-3.1,2.15-2.8,4.29.17,1.18.91,1.84,1.87,1.7a1.8,1.8,0,0,0,1.42-1.11h0A.94.94,0,0,0,54,74a2.59,2.59,0,0,0,.85-.26l0-1a1.33,1.33,0,0,1-.29.07c-.23,0-.34,0-.38-.3M47,74.9l1.46-.2.13-7.88-1.46.2ZM43.1,72.35c0-1.13.58-1.67,1.08-1.74a.43.43,0,0,1,.55.42c.09.63-.57,1.1-1.63,1.32m3-1.59c-.14-1-.95-1.37-2-1.23a3.18,3.18,0,0,0-2.51,3.83,2.14,2.14,0,0,0,2.72,2,3.35,3.35,0,0,0,1.34-.48V73.67a3.45,3.45,0,0,1-1.35.55c-.67.09-1.08-.15-1.21-1,1.89-.37,3.17-1.11,3-2.5M40.79,70a1.83,1.83,0,0,0-1.25,1l0-.68-1.45.2L38,76.16l1.47-.2.07-3.82a1.89,1.89,0,0,1,1.13-.78,1.58,1.58,0,0,1,.53,0l0-1.34a1.15,1.15,0,0,0-.47,0M35,76.58l1.52-.21.13-7.22-1.53.21ZM57.46,58.3a1.38,1.38,0,0,0-.28-.62l-1.28.38a1.77,1.77,0,0,1,.15.51,2.26,2.26,0,0,1-.17,1.06l-.48,1.46c-.1.3-.21.66-.32,1h0c-.06-.33-.15-.72-.23-1l-.53-2A1,1,0,0,0,53,58.28a1.55,1.55,0,0,0-.66.24l0,1a1,1,0,0,1,.26-.07c.19,0,.31,0,.39.32l1.22,4.06c0,.05-.06.17-.08.21a1.26,1.26,0,0,1-1.12,1,2.43,2.43,0,0,1-.6,0l0,1.12a2.61,2.61,0,0,0,.9,0C54.54,66,55,65.27,55.52,64l1.6-4a3.64,3.64,0,0,0,.34-1.7m-7.21,2.13a2.23,2.23,0,0,1,0,.46l-.05,2.19a2,2,0,0,0,0,.35,1,1,0,0,0,1.3.91,2.5,2.5,0,0,0,.8-.26l0-1-.26.06c-.23,0-.34,0-.38-.29a2,2,0,0,1,0-.26l0-2.11a3.7,3.7,0,0,0,0-.59c-.11-.8-.52-1.34-1.45-1.2a2.31,2.31,0,0,0-1.63,1.06l0-2.93-1.46.2-.13,7.88,1.46-.21.07-3.9A1.91,1.91,0,0,1,49.7,60c.34-.05.5.11.55.47M45,63.57a.72.72,0,0,1,0-.21L45,60.58l1.28-.18,0-1.08L45,59.5,45,58l-1.21.17-.29,1.53-.8.11,0,1.1.8-.12,0,2.84a3,3,0,0,0,0,.44c.13.91.75,1.3,1.73,1.16a2.85,2.85,0,0,0,1.09-.35V63.74a2.5,2.5,0,0,1-.81.25.44.44,0,0,1-.57-.42m-3,2,.12-7.88-1.46.21-.13,7.88Zm-4.37-1.28c-.15.4-.46.86-.91.92S36,65,36,64.46c-.21-1.44.27-2.67,1.23-2.8a1.28,1.28,0,0,1,.44,0Zm1.28,1.8a2.86,2.86,0,0,0,.85-.26l0-1a1.43,1.43,0,0,1-.29.08c-.23,0-.34-.06-.38-.31a1,1,0,0,1,0-.19l.06-3.86a6.35,6.35,0,0,0-1.92,0c-2.08.29-3.09,2.15-2.79,4.29.16,1.18.9,1.84,1.87,1.7a1.79,1.79,0,0,0,1.41-1.11h0a1,1,0,0,0,1.16.74m-8.09-2.05c0-1.12.58-1.66,1.08-1.73a.43.43,0,0,1,.55.42c.09.62-.57,1.09-1.63,1.31m3-1.59c-.13-1-.94-1.37-2-1.22a3.18,3.18,0,0,0-2.51,3.83,2.15,2.15,0,0,0,2.72,2,3.35,3.35,0,0,0,1.34-.49V65.4a3.36,3.36,0,0,1-1.35.54c-.67.1-1.09-.14-1.21-1,1.89-.37,3.17-1.1,3-2.5m-7.12.94-2.78.4L24,60.93l-1.52.21-.13,7.22,1.52-.21.05-3.08,2.78-.39,0,3.08,1.52-.21.11-7.22-1.51.21ZM53.82,43.58a11.21,11.21,0,0,0,0,2.54c.42,3,2.33,4.76,5.79,4.27,2.9-.41,5.26-2.09,6.06-7.55l-2.36-.55c-.69,3.27-1.58,4-2.5,4.09-.76.1-1.28-.29-1.42-1.25a9.72,9.72,0,0,1,0-2.4L61.15,27l-9.67,1.36-.56,4.86,4-.57Zm4.61-19.34a3.44,3.44,0,1,0-3.94-2.92,3.45,3.45,0,0,0,3.94,2.92M24.3,54.87l5.7-.8,1.19-13.36c.32-3.63,1.78-5.44,4.17-5.78a2.88,2.88,0,0,1,3.49,2.68,6.15,6.15,0,0,1,0,1.87L38,45.72a9.05,9.05,0,0,0,0,2.6c.4,2.85,2.37,4.7,5.89,4.21,3-.42,5.12-2.7,5.79-7.51l-2.36-.55c-.68,3.26-1.57,4-2.33,4.06s-1.25-.34-1.39-1.36a6.8,6.8,0,0,1,0-1.61l.81-6.09a13.44,13.44,0,0,0,0-3.79c-.62-4.38-3.69-6.29-6.9-5.84-2.69.38-5,2.88-6.19,5.44l1.7-19.66L23.59,17,23,21.82l4.17-.59Z"/></g></g></svg>