<?xml version="1.0" encoding="UTF-8"?>
<svg xmlns="http://www.w3.org/2000/svg" width="305" height="79" viewBox="0 0 305 79" fill="none">
  <path d="M121.772 33.4785C121.867 34.9705 121.466 35.2761 119.948 35.2761H119.27C117.685 35.2761 117.284 34.8627 117.179 33.4785L116.224 19.8883C116.128 18.585 116.023 18.2973 115.45 18.2973C114.877 18.2973 114.744 18.585 114.572 19.8883L113.025 31.573C112.998 32.6647 112.581 33.7161 111.841 34.5571C110.937 35.1852 109.815 35.4678 108.699 35.348C106.102 35.348 104.793 34.4942 104.383 31.573L102.798 19.8883C102.626 18.585 102.463 18.2973 101.919 18.2973C101.375 18.2973 101.241 18.585 101.145 19.8883L100.191 33.4785C100.095 34.9076 99.6844 35.2761 98.0992 35.2761H97.4308C95.9125 35.2761 95.5209 34.9256 95.6069 33.4785L96.6859 19.5737C96.9533 16.1042 98.443 14.4863 101.814 14.4863C104.956 14.4863 106.436 16.0143 106.846 19.5737L108.088 30.782C108.193 31.6808 108.26 31.8336 108.661 31.8336C109.062 31.8336 109.138 31.7078 109.234 30.782L110.485 19.5737C110.857 16.0413 112.337 14.4863 115.479 14.4863C118.955 14.4863 120.368 16.0413 120.645 19.5737L121.724 33.4785" fill="white"></path>
  <path d="M139.419 27.159C139.247 28.5881 138.808 28.9027 137.223 28.9027H128.628V29.388C128.628 31.0329 129.946 31.7969 133.05 31.7969C134.425 31.7767 135.794 31.6261 137.137 31.3475C138.588 31.0688 138.923 31.3475 138.923 32.8755V33.226C138.923 34.6192 138.617 34.9428 137.137 35.2933C135.789 35.5959 134.406 35.7348 133.021 35.7068C126.976 35.7068 124.207 33.6035 124.207 28.7499V26.2062C124.207 21.4424 126.843 19.0605 132.076 19.0605C137.003 19.0605 139.467 21.3466 139.467 25.9186C139.467 26.368 139.467 26.8174 139.4 27.159M128.628 25.5411H135.313V25.0647C135.313 23.4468 134.205 22.6469 131.971 22.6469C129.736 22.6469 128.667 23.4468 128.667 25.0647L128.628 25.5411Z" fill="white"></path>
  <path d="M146.356 33.55C146.356 34.9701 145.984 35.3476 144.446 35.3476H143.806C142.288 35.3476 141.896 34.9971 141.896 33.55V25.4606C141.896 21.2721 144.494 19.043 149.593 19.043C154.855 19.043 157.233 21.1372 157.233 25.4606V33.55C157.233 34.9701 156.86 35.3476 155.323 35.3476H154.702C153.184 35.3476 152.792 34.9971 152.792 33.55V25.4606C152.792 23.6629 152.191 22.9529 149.593 22.9529C146.996 22.9529 146.318 23.6809 146.318 25.4606V33.55" fill="white"></path>
  <path d="M159.137 21.6664C159.137 20.399 159.471 20.0215 160.789 19.7609L162.173 19.4822L162.574 16.9655C162.746 15.6712 163.147 15.3477 164.599 15.3477H164.799C166.251 15.3477 166.557 15.6353 166.557 17.0015V19.4822H170.376C171.895 19.4822 172.286 19.8238 172.286 21.2799V21.6214C172.286 23.0506 171.914 23.4191 170.376 23.4191H166.557V29.7109C166.557 31.14 167.263 31.8411 168.686 31.8411C169.477 31.8525 170.268 31.7863 171.045 31.6433C172.563 31.3917 172.897 31.5535 172.897 32.9466V33.2972C172.897 34.7263 172.496 35.2656 171.045 35.5532C170.268 35.6955 169.477 35.7588 168.686 35.742C164.332 35.742 162.173 33.7106 162.173 29.6749V23.3831H160.817C159.471 23.3831 159.137 23.0686 159.137 21.8012V21.6664Z" fill="white"></path>
  <path d="M189.659 30.5925C189.659 34.026 187.434 35.7068 182.334 35.7068C177.235 35.7068 175.02 34.026 175.02 30.6823C175.02 27.3387 177.311 25.7298 181.866 25.7298H185.256V24.5254C185.256 22.9974 184.072 22.5929 181.742 22.5929C180.762 22.5953 179.782 22.6583 178.811 22.7817C177.321 22.9974 176.901 22.6828 176.901 21.2896V21.1548C176.901 19.7976 177.273 19.447 178.725 19.2223C179.631 19.1152 180.543 19.0612 181.456 19.0605C186.756 19.0605 189.62 20.5885 189.62 24.5254V30.5925M185.256 28.8577H181.78C180.195 28.8577 179.384 29.424 179.384 30.6014C179.517 32.1294 180.596 32.2822 182.248 32.2553C183.9 32.2283 185.113 32.0935 185.256 30.3767V28.8577Z" fill="white"></path>
  <path d="M192.618 14.8719C192.618 13.4427 192.991 13.0742 194.528 13.0742H195.139C196.658 13.0742 197.049 13.4248 197.049 14.8719V29.6036C197.049 31.2305 197.488 31.7338 198.529 31.7338H198.625C199.58 31.7338 199.771 31.9585 199.771 33.1989V33.8011C199.771 35.0684 199.532 35.419 198.625 35.5988C198.289 35.6398 197.951 35.6608 197.613 35.6617C194.538 35.6617 192.58 34.0078 192.58 30.5474V14.8719" fill="white"></path>
  <path d="M214.162 26.4304V33.4772C214.162 34.9064 213.799 35.2749 212.252 35.2749H211.65C210.065 35.2749 209.74 34.8614 209.74 33.4772V16.5164C209.74 15.0873 210.113 14.6738 211.65 14.6738H212.252C213.846 14.6738 214.162 15.0873 214.162 16.5164V22.4576H222.164V16.5164C222.164 15.0873 222.603 14.6738 224.121 14.6738H224.723C226.241 14.6738 226.681 15.0873 226.681 16.5164V33.4772C226.681 34.9064 226.241 35.2749 224.723 35.2749H224.121C222.603 35.2749 222.164 34.8614 222.164 33.4772V26.4304H214.162Z" fill="white"></path>
  <path d="M245.042 27.159C244.88 28.5881 244.431 28.9027 242.856 28.9027H234.261V29.388C234.261 31.0329 235.579 31.7969 238.683 31.7969C240.054 31.7767 241.42 31.6261 242.76 31.3475C244.212 31.0688 244.555 31.3475 244.555 32.8755V33.226C244.555 34.6192 244.25 34.9428 242.76 35.2933C241.413 35.5967 240.029 35.7357 238.644 35.7068C232.609 35.7068 229.84 33.6035 229.84 28.7499V26.2062C229.84 21.4424 232.475 19.0605 237.699 19.0605C242.626 19.0605 245.09 21.3466 245.09 25.9186C245.09 26.368 245.09 26.8174 245.023 27.159M234.261 25.5411H240.946V25.0647C240.946 23.4468 239.838 22.6469 237.603 22.6469C235.369 22.6469 234.299 23.4468 234.299 25.0647L234.261 25.5411Z" fill="white"></path>
  <path d="M262.34 30.5925C262.34 34.026 260.115 35.7068 255.016 35.7068C249.916 35.7068 247.691 34.026 247.691 30.6823C247.691 27.3387 249.993 25.7298 254.548 25.7298H257.957V24.5254C257.957 22.9974 256.773 22.5929 254.443 22.5929C253.462 22.5953 252.483 22.6583 251.511 22.7817C250.021 22.9974 249.601 22.6828 249.601 21.2896V21.1548C249.601 19.7976 249.974 19.447 251.416 19.2223C252.325 19.1152 253.24 19.0612 254.156 19.0605C259.447 19.0605 262.321 20.5885 262.321 24.5254V30.5925M257.957 28.8577H254.481C252.886 28.8577 252.084 29.424 252.084 30.6014C252.218 32.1294 253.297 32.2822 254.949 32.2553C256.601 32.2283 257.814 32.0935 257.957 30.3767V28.8577Z" fill="white"></path>
  <path d="M265.295 14.8719C265.295 13.4427 265.667 13.0742 267.205 13.0742H267.816C269.334 13.0742 269.726 13.4248 269.726 14.8719V29.6036C269.726 31.2305 270.156 31.7338 271.206 31.7338H271.378C272.333 31.7338 272.524 31.9585 272.524 33.1989V33.8011C272.524 35.0684 272.285 35.419 271.378 35.5988C271.042 35.6398 270.704 35.6608 270.366 35.6617C267.291 35.6617 265.333 34.0078 265.333 30.5474V14.8719" fill="white"></path>
  <path d="M273.111 21.6664C273.111 20.399 273.446 20.0215 274.763 19.7609L276.148 19.4822L276.549 16.9655C276.721 15.6712 277.122 15.3477 278.574 15.3477H278.774C280.226 15.3477 280.531 15.6353 280.531 17.0015V19.4822H284.351C285.869 19.4822 286.261 19.8238 286.261 21.2799V21.6214C286.261 23.0506 285.888 23.4191 284.351 23.4191H280.531V29.7109C280.531 31.14 281.238 31.8411 282.661 31.8411C283.452 31.852 284.242 31.7857 285.019 31.6433C286.538 31.3917 286.872 31.5535 286.872 32.9466V33.2972C286.872 34.7263 286.471 35.2656 285.019 35.5532C284.243 35.6955 283.452 35.7588 282.661 35.742C278.306 35.742 276.148 33.7106 276.148 29.6749V23.3831H274.792C273.446 23.3831 273.111 23.0686 273.111 21.8012V21.6664Z" fill="white"></path>
  <path d="M289.342 14.8719C289.342 13.4427 289.715 13.0742 291.252 13.0742H291.892C293.41 13.0742 293.802 13.4248 293.802 14.8719V20.876C294.477 20.2493 295.286 19.7649 296.175 19.455C297.064 19.145 298.013 19.0167 298.958 19.0784C300.427 19.0342 301.863 19.487 303.007 20.3547C304.125 21.2086 304.698 22.6107 304.698 24.5432V33.5315C304.698 34.9516 304.325 35.3291 302.788 35.3291H302.148C300.63 35.3291 300.238 34.9786 300.238 33.5315V25.2623C300.238 23.5815 299.283 22.9793 297.373 22.9793C295.12 22.9793 293.735 23.932 293.735 26.8172V33.5584C293.735 34.9786 293.363 35.3561 291.825 35.3561H291.185C289.667 35.3561 289.275 35.0055 289.275 33.5584V14.8719" fill="white"></path>
  <path d="M96.9355 45.6219C96.9355 44.2017 97.308 43.8242 98.8932 43.8242H99.5043C101.089 43.8242 101.462 44.2377 101.462 45.6219V62.5827C101.462 64.0118 101.089 64.3803 99.5043 64.3803H98.8932C97.308 64.3803 96.9355 63.9669 96.9355 62.5827V45.6219Z" fill="white"></path>
  <path d="M109.27 62.6441C109.27 64.0822 108.898 64.4418 107.36 64.4418H106.72C105.202 64.4418 104.811 64.1002 104.811 62.6441V53.9435C104.811 50.1684 107.246 48.1641 111.829 48.1641H112.202C113.52 48.1641 113.921 48.7034 113.921 50.1954V50.5459C113.921 51.9481 113.586 52.1638 112.202 52.0739H111.829C109.776 52.0739 109.232 52.7121 109.232 54.2671V62.6441" fill="white"></path>
  <path d="M131.216 56.2625C131.044 57.6916 130.605 58.0601 129.02 58.0601H120.425V58.5185C120.425 60.1634 121.743 60.9274 124.847 60.9274C126.221 60.906 127.59 60.7585 128.934 60.487C130.385 60.1993 130.719 60.487 130.719 62.006V62.3565C130.719 63.7587 130.414 64.0733 128.934 64.4238C127.587 64.7312 126.203 64.8702 124.818 64.8373C118.773 64.8373 116.004 62.743 116.004 57.8804V55.3097C116.004 50.546 118.64 48.1191 123.873 48.1191C128.8 48.1191 131.264 50.4051 131.264 54.9772C131.264 55.4266 131.264 55.876 131.197 56.2175M120.425 54.5997H127.11V54.1233C127.11 52.5054 126.002 51.7054 123.777 51.7054C121.552 51.7054 120.463 52.5054 120.463 54.1233L120.425 54.5997Z" fill="white"></path>
  <path d="M133.947 43.9773C133.947 42.5482 134.32 42.1797 135.857 42.1797H136.468C137.987 42.1797 138.378 42.5302 138.378 43.9773V58.7091C138.378 60.3359 138.817 60.8393 139.858 60.8393H140.03C140.985 60.8393 141.176 61.064 141.176 62.3044V62.9066C141.176 64.1739 140.937 64.5245 140.03 64.7042C139.695 64.7452 139.356 64.7662 139.018 64.7671C135.943 64.7671 133.985 63.1133 133.985 59.6528V43.9773" fill="white"></path>
  <path d="M157.508 59.696C157.508 63.1295 155.273 64.8103 150.184 64.8103C145.094 64.8103 142.859 63.1295 142.859 59.7859C142.859 56.4422 145.151 54.8333 149.706 54.8333H153.115V53.6289C153.115 52.1009 151.941 51.6875 149.611 51.6875C148.627 51.6884 147.644 51.7545 146.67 51.8852C145.189 52.1009 144.76 51.7863 144.76 50.3931V50.2583C144.76 48.8921 145.132 48.5506 146.584 48.3259C147.49 48.219 148.402 48.165 149.315 48.1641C154.615 48.1641 157.489 49.6921 157.489 53.6289V59.696M153.096 57.8983H149.639C148.054 57.8983 147.243 58.4736 147.243 59.696C147.386 61.215 148.465 61.3768 150.107 61.3498C151.75 61.3228 152.972 61.188 153.106 59.4713L153.096 57.8983Z" fill="white"></path>
  <path d="M164.887 62.6437C164.887 64.0819 164.515 64.4414 162.977 64.4414H162.338C160.819 64.4414 160.428 64.0998 160.428 62.6437V54.5543C160.428 50.3658 163.025 48.1367 168.124 48.1367C173.386 48.1367 175.764 50.231 175.764 54.5543V62.6437C175.764 64.0819 175.392 64.4414 173.854 64.4414H173.214C171.696 64.4414 171.304 64.0998 171.304 62.6437V54.5543C171.304 52.7567 170.703 52.0466 168.105 52.0466C165.508 52.0466 164.83 52.7747 164.83 54.5543V62.6437" fill="white"></path>
  <path d="M194.805 57.8552C194.805 62.583 191.597 64.8121 186.774 64.8121C181.408 64.8121 178.705 62.4931 178.705 57.8552V55.3115C178.705 50.7365 181.169 48.1209 185.8 48.1209C187.92 48.1209 189.477 48.7231 190.422 49.9186V43.9773C190.422 42.5482 190.785 42.1797 192.332 42.1797H192.934C194.452 42.1797 194.843 42.5302 194.843 43.9773V57.8552M183.165 57.7563C183.165 60.0124 183.843 60.9022 186.774 60.9022C189.706 60.9022 190.46 59.9494 190.46 57.7563V55.2216C190.46 53.0285 189.649 52.0757 186.774 52.0757C183.9 52.0757 183.165 53.0285 183.165 55.2216V57.7563Z" fill="white"></path>
  <path d="M41.4345 0.544964C33.0886 0.533371 24.9349 2.90251 18.0482 7.34007C16.0811 8.6164 14.6964 12.3735 13.2736 16.4362C12.0833 17.6994 10.9918 19.0422 10.0077 20.4539C9.83834 20.6982 9.72387 20.9726 9.67132 21.2601C9.61877 21.5476 9.62925 21.8422 9.70212 22.1257C9.82513 22.5643 10.0429 22.9744 10.3419 23.3302L10.2655 23.438C9.88356 23.8605 9.64482 23.8605 9.55888 23.8605C9.03451 23.7669 8.53681 23.5709 8.09783 23.2852C7.41493 22.844 6.62183 22.5776 5.79645 22.5122C5.02296 22.5122 3.95343 22.8538 3.23723 24.4447C1.09559 29.2235 -0.00522472 34.3584 1.86434e-05 39.5449C1.86434e-05 40.9201 1.61385 41.1988 4.67918 41.4504C5.63411 42.6459 7.39119 43.329 9.50158 43.8323C9.39654 43.9312 9.30105 44.0391 9.20555 44.1379C8.90953 44.4435 8.62305 44.7581 8.32702 45.0368C3.41867 45.9356 1.82394 46.5018 1.27963 47.2838C1.17117 47.4402 1.09676 47.6152 1.0607 47.7988C1.02463 47.9824 1.02764 48.1709 1.06954 48.3534C2.0879 52.4537 3.80342 56.3721 6.14977 59.9572C7.34156 61.7746 8.68933 63.4971 10.1796 65.1075C10.3738 65.3215 10.6156 65.4928 10.8878 65.6093C11.1601 65.7258 11.4562 65.7846 11.7552 65.7816C12.8096 65.6533 13.8033 65.2448 14.62 64.6042C15.0172 64.3399 15.4318 64.0998 15.8614 63.8851C15.9783 64.7408 16.0421 65.6021 16.0524 66.4647C16.1479 69.0084 16.2529 70.4825 17.2461 71.1566C17.6328 71.4175 18.0976 71.556 18.5734 71.5521C19.9294 71.5521 21.2377 70.4825 22.6223 69.35C23.329 68.7747 24.6277 67.7051 25.1243 67.6692C27.0341 68.568 28.858 70.3656 30.7679 72.2532C33.881 75.3181 37.0991 78.5449 41.4536 78.5449C52.4427 78.5449 62.9817 74.436 70.7522 67.1221C78.5226 59.8082 82.8881 49.8884 82.8881 39.5449C82.8881 29.2015 78.5226 19.2817 70.7522 11.9678C62.9817 4.65388 52.4427 0.544964 41.4536 0.544964M34.3775 7.39401C36.6972 6.95128 39.0581 6.72845 41.4249 6.72887C50.5278 6.92945 59.1861 10.474 65.5488 16.6046C71.9114 22.7353 75.4735 30.9656 75.4735 39.536C75.4735 48.1063 71.9114 56.3366 65.5488 62.4673C59.1861 68.5979 50.5278 72.1425 41.4249 72.343C35.4757 72.343 32.143 69.9432 29.8321 66.1322L31.8183 66.4288C32.876 67.8932 34.3137 69.0788 35.995 69.8732C37.6763 70.6676 39.5454 71.0444 41.4249 70.9678C50.2892 70.9678 58.7903 67.6534 65.0583 61.7538C71.3262 55.8541 74.8475 47.8524 74.8475 39.509C74.8475 31.1656 71.3262 23.1639 65.0583 17.2642C58.7903 11.3645 50.2892 8.05015 41.4249 8.05015C39.0391 8.07072 36.6617 8.32069 34.3298 8.79617C34.2915 8.32854 34.3075 7.85837 34.3775 7.39401ZM9.74986 47.2569L11.0868 47.0052C10.6731 47.3756 10.3567 47.8316 10.1628 48.3371C9.96887 48.8426 9.90268 49.3836 9.9695 49.9174C9.53023 49.7915 9.12916 49.6747 8.88088 49.5848C8.64215 48.9017 8.97637 48.2006 9.74986 47.2569ZM34.5303 11.4117C34.5303 11.3668 34.5303 11.3129 34.5303 11.2769C36.8037 10.7956 39.1237 10.5366 41.4536 10.5039C49.6365 10.5039 57.4843 13.5636 63.2705 19.0099C69.0568 24.4561 72.3074 31.8428 72.3074 39.5449C72.3074 47.2471 69.0568 54.6338 63.2705 60.08C57.4843 65.5263 49.6365 68.5859 41.4536 68.5859C39.3933 68.6651 37.3679 68.0678 35.724 66.8962C37.8821 67.0939 39.8493 67.2018 41.4536 67.2018C49.2465 67.2018 56.7202 64.2879 62.2307 59.1013C67.7411 53.9146 70.8368 46.88 70.8368 39.5449C70.8368 32.2099 67.7411 25.1753 62.2307 19.9886C56.7202 14.802 49.2465 11.8881 41.4536 11.8881C39.0419 11.9547 36.7095 12.7137 34.7691 14.0633C34.6927 13.2723 34.6163 12.3825 34.5303 11.4117ZM41.4345 14.288C48.5512 14.288 55.3764 16.949 60.4087 21.6856C65.4409 26.4222 68.2681 32.8464 68.2681 39.5449C68.2681 46.2435 65.4409 52.6677 60.4087 57.4043C55.3764 62.1409 48.5512 64.8019 41.4345 64.8019C38.6929 64.7663 35.9563 64.5682 33.2412 64.2087C33.0215 63.8851 32.821 63.5346 32.6205 63.175C35.2752 63.3368 38.1782 63.4267 41.4345 63.4267C48.1637 63.4267 54.6173 60.9106 59.3756 56.4319C64.1338 51.9532 66.807 45.8788 66.807 39.5449C66.807 33.2111 64.1338 27.1367 59.3756 22.658C54.6173 18.1793 48.1637 15.6632 41.4345 15.6632C36.0773 15.6632 33.5086 18.899 31.0162 22.0269C30.0475 23.2943 28.9849 24.4957 27.8363 25.6222C27.6548 25.7929 26.8813 26.1884 23.6632 26.2244L24.2553 25.8019C25.0097 25.2806 25.7832 24.7413 26.5758 24.1751C28.0903 23.0182 29.5255 21.7723 30.8729 20.4449C34.0911 17.4339 37.4333 14.288 41.4345 14.288ZM19.1846 53.6655C18.9459 53.3419 18.7262 53.0093 18.5066 52.6768C18.287 52.3442 17.9718 52.1015 16.4821 51.6701L18.2774 51.4544C19.4424 51.3016 20.5788 51.1757 21.6006 51.1128C22.1544 52.7307 22.6701 54.3576 23.1667 55.9575C23.5773 57.3057 23.9974 58.6539 24.4272 59.9303C21.3934 59.5322 18.4255 58.7741 15.594 57.6742C17.7426 56.7754 19.0986 56.1013 19.4138 55.0317C19.4839 54.802 19.4997 54.5607 19.4601 54.3247C19.4205 54.0886 19.3265 53.8636 19.1846 53.6655ZM15.7564 34.0711L16.4344 34.3857L17.5039 34.898L15.7182 35.1497L15.3935 34.8351C15.4998 34.5745 15.6209 34.3194 15.7564 34.0711ZM25.9646 49.7826C25.6539 49.4189 25.2595 49.1265 24.8112 48.9272C24.363 48.7279 23.8725 48.627 23.3767 48.6321C23.0521 47.7332 22.7465 46.8344 22.4218 45.9895C22.2635 45.6604 22.0508 45.357 21.7915 45.0907L23.7969 44.6772C23.618 44.9909 23.5244 45.3414 23.5244 45.6974C23.5244 46.0534 23.618 46.4039 23.7969 46.7176C24.3412 47.6164 25.7927 47.922 28.2755 48.2366C28.1172 48.8615 27.8766 49.4654 27.5593 50.0342C27.3362 50.456 27.1354 50.888 26.9577 51.3285C26.6426 50.8162 26.3179 50.2859 25.9646 49.7826ZM13.4836 49.477C13.8943 48.8568 14.3144 48.2366 14.7346 47.6793L15.4508 46.6367L16.1766 46.1423L18.2583 45.7738C18.9915 45.9316 19.6334 46.3462 20.0536 46.9333C20.3114 47.5265 20.5119 48.1467 20.7411 48.7309C19.8435 48.8118 18.9077 48.9287 17.9718 49.0455C16.527 49.2636 15.0698 49.4016 13.6078 49.459L13.4836 49.477ZM24.1311 39.8056C24.1311 39.9225 24.1311 40.0213 24.1311 40.1292H23.8924C23.9974 40.0123 24.0738 39.9045 24.1311 39.8056ZM26.6426 39.5449C26.6426 38.7989 27.7026 38.3046 29.3164 37.6754C28.9551 37.8556 28.6525 38.1246 28.4406 38.4538C28.2288 38.783 28.1156 39.1601 28.1132 39.5449C27.9861 39.9316 27.7559 40.2813 27.4447 40.5606L27.0819 40.4797C26.9309 40.3714 26.8115 40.2288 26.7347 40.0654C26.6579 39.902 26.6262 39.723 26.6426 39.5449ZM21.7915 42.6099L21.1708 42.7358L21.5815 42.4302L21.7915 42.6099ZM30.3859 46.0704C29.7179 45.1251 28.8459 44.3227 27.8267 43.7155L27.9318 43.6076C28.0177 43.5357 28.0941 43.4548 28.18 43.3739C28.7816 43.4998 29.3928 43.5897 29.9562 43.6616C31.6369 43.9042 33.3749 44.1469 34.2439 45.0098C34.9837 45.9272 35.493 46.9905 35.7335 48.1197C35.1988 47.8048 34.694 47.4469 34.2248 47.0501C33.5658 46.5108 32.3722 46.3131 30.3477 46.0704H30.3859ZM38.5888 48.9646C38.0636 46.9153 37.5288 44.7941 36.0964 43.3649C34.664 41.9358 32.3435 41.5673 30.3668 41.2887H30.109C30.4531 40.8251 30.6666 40.287 30.7297 39.7247C31.6438 39.3482 32.6073 39.0882 33.5945 38.9517C35.5999 38.5742 37.5002 38.2147 38.2164 36.9743C39.0854 35.4823 38.2164 33.7655 37.5193 32.2465C37.209 31.6747 36.9687 31.0717 36.8031 30.4488C38.2607 29.7906 39.8571 29.4496 41.4738 29.4512C43.0906 29.4528 44.6862 29.7969 46.1424 30.458C47.5986 31.1191 48.878 32.0803 49.8857 33.2703C50.8934 34.4602 51.6037 35.8485 51.9637 37.332C52.3238 38.8155 52.3244 40.3563 51.9656 41.8401C51.6068 43.3239 50.8977 44.7126 49.8909 45.9033C48.8842 47.094 47.6056 48.0562 46.1499 48.7184C44.6943 49.3806 43.099 49.7258 41.4822 49.7286C40.5389 49.7136 39.6017 49.5836 38.6938 49.3421C38.6079 49.1803 38.5792 49.0905 38.5506 48.9646H38.5888ZM41.4536 52.0835C43.4807 52.1097 45.4876 51.7016 47.3224 50.8901C49.1572 50.0786 50.772 48.8849 52.0444 47.3994C53.3169 45.9139 54.2138 44.1755 54.6672 42.3157C55.1207 40.4558 55.1188 38.5233 54.6617 36.6642C54.2047 34.8052 53.3044 33.0683 52.0291 31.585C50.7537 30.1017 49.1366 28.9108 47.3002 28.1025C45.4638 27.2942 43.4561 26.8895 41.4291 26.9192C39.402 26.9488 37.4087 27.412 35.5999 28.2737C33.2985 29.3343 34.473 31.7611 35.1701 33.2082C35.5808 34.0441 36.1824 35.3025 35.9627 35.7699C35.0548 36.166 34.0893 36.4326 33.0979 36.5608C32.3817 36.7047 31.6369 36.8485 30.9398 37.0462C32.0918 36.627 33.0879 35.8988 33.8046 34.952C34.6067 33.7385 33.7377 32.2555 32.8497 30.6735C32.4846 30.0974 32.1654 29.4965 31.8947 28.8759C33.7132 27.432 35.8749 26.4223 38.1964 25.9324C40.5178 25.4426 42.9306 25.487 45.2299 26.0619C47.5293 26.6368 49.6474 27.7252 51.4045 29.2349C53.1616 30.7446 54.506 32.6309 55.3235 34.7339C56.141 36.8368 56.4075 39.0943 56.1005 41.3149C55.7934 43.5355 54.9218 45.6536 53.5597 47.4895C52.1975 49.3255 50.385 50.8251 48.2758 51.8611C46.1667 52.8971 43.8231 53.439 41.444 53.4408C40.4891 53.4408 39.9925 52.8925 39.5342 51.8948C40.1624 51.9978 40.7973 52.0609 41.4345 52.0835H41.4536ZM30.2427 31.2578C30.3573 31.4465 30.4623 31.6353 30.5674 31.824C30.9623 32.4448 31.2826 33.105 31.5223 33.7925C30.6966 34.4957 29.7194 35.023 28.6575 35.3384C27.1774 35.9137 25.4394 36.5878 24.6086 37.8731C24.5593 37.3776 24.3859 36.9001 24.1025 36.48C24.4558 36.2552 24.8569 36.0395 25.3248 35.7879C26.7585 35.1104 28.0521 34.1972 29.1445 33.0914C29.6248 32.5474 29.9968 31.9262 30.2427 31.2578ZM29.8607 51.0319C30.3025 50.2423 30.6239 49.3981 30.8156 48.5242C31.4046 48.5847 31.9863 48.696 32.5536 48.8568C33.7275 49.851 35.0831 50.6367 36.5548 51.1757C37.271 53.5486 38.4646 55.8496 41.4536 55.8496C44.1615 55.8626 46.835 55.2786 49.26 54.1442C51.685 53.0099 53.7941 51.3567 55.4182 49.3172C57.0424 47.2777 58.1366 44.9086 58.6131 42.3995C59.0896 39.8904 58.9353 37.3112 58.1624 34.8684C57.3895 32.4255 56.0195 30.187 54.1622 28.3322C52.305 26.4773 50.012 25.0576 47.467 24.1867C44.922 23.3159 42.1957 23.0182 39.5065 23.3174C36.8172 23.6166 34.2398 24.5044 31.9807 25.9098C32.3817 24.7773 32.8401 23.7796 33.3271 23.5639C36.372 22.1933 39.7527 21.6194 43.1145 21.9025C46.4762 22.1856 49.695 23.3152 52.4331 25.1727C55.1711 27.0302 57.3275 29.5472 58.6759 32.4595C60.0243 35.3719 60.515 38.5721 60.0965 41.7244C59.678 44.8768 58.3657 47.865 56.2974 50.3754C54.229 52.8858 51.4809 54.826 48.3414 55.9922C45.2019 57.1584 41.7867 57.5077 38.4544 57.0034C35.122 56.4991 31.9953 55.1599 29.4024 53.1262C29.0681 52.8835 29.0872 52.5779 29.8607 51.0499V51.0319ZM27.2824 31.4555C27.0341 31.7072 26.7858 31.9319 26.5376 32.1386C25.5929 30.6924 24.2801 29.4907 22.7178 28.6422H23.0521C25.7736 28.6422 27.5116 28.4355 28.6384 27.9411C28.3988 29.1815 27.9405 30.3754 27.2824 31.4735V31.4555ZM19.4329 29.4422C20.5215 30.0893 21.5624 30.7365 22.4027 31.3567C23.9401 32.4712 24.2362 33.0464 24.3126 33.2172C23.4247 33.6893 22.4546 34.0089 21.4478 34.161C20.2115 33.4513 18.9365 32.8033 17.628 32.2195L17.0837 31.9679C17.7751 31.0597 18.5622 30.2195 19.4329 29.4601V29.4422ZM20.5979 36.7856C20.24 37.6439 20.0648 38.5601 20.0822 39.482C20.0822 39.5989 20.0822 39.6977 20.0822 39.8056L18.5543 39.7247C18.5543 39.6438 18.5543 39.5629 18.5543 39.482C18.4777 38.6636 18.1454 37.8849 17.5994 37.244C18.7167 37.1361 19.7098 36.9473 20.5979 36.8035V36.7856ZM25.6113 55.2834C25.3248 54.3845 25.0192 53.4318 24.7232 52.497C25.9394 54.5991 26.9957 56.7797 27.884 59.0225C28.0845 59.4898 28.2946 59.9213 28.4952 60.4336C28.075 60.4336 27.6548 60.3527 27.2347 60.2988C26.6808 58.7169 26.1556 57.0361 25.6113 55.2834ZM30.2522 58.1326C29.9658 57.4315 29.6602 56.7305 29.3546 56.0294C32.1069 57.8197 35.2682 58.9754 38.5829 59.4029C41.8976 59.8304 45.2727 59.5177 48.4352 58.4903C51.5978 57.4628 54.4591 55.7493 56.7878 53.4883C59.1166 51.2273 60.8475 48.4822 61.8405 45.475C62.8335 42.4679 63.0608 39.2829 62.504 36.1778C61.9472 33.0726 60.622 30.1343 58.6354 27.6005C56.6489 25.0666 54.0567 23.0083 51.0686 21.5919C48.0804 20.1755 44.7801 19.4408 41.4345 19.4472C39.6194 19.4501 37.8124 19.6737 36.0582 20.1124C36.7627 19.4497 37.6019 18.9274 38.5256 18.5768C39.4493 18.2263 40.4387 18.0546 41.4345 18.072C47.4875 18.072 53.2926 20.3353 57.5727 24.3639C61.8528 28.3926 64.2573 33.8566 64.2573 39.5539C64.2573 45.2513 61.8528 50.7153 57.5727 54.7439C53.2926 58.7726 47.4875 61.0358 41.4345 61.0358C38.6747 61.0358 35.1033 60.9639 31.3695 60.6943C30.9971 59.8674 30.6247 59.0225 30.2522 58.1326ZM15.4031 28.4714H16.7591C16.0206 29.1916 15.3497 29.9705 14.7537 30.7994C14.329 30.5752 13.9178 30.3291 13.5218 30.0623C12.9107 29.6399 12.5669 29.2354 12.6242 29.0647C12.7052 28.8751 12.8077 28.6943 12.9298 28.5254C13.5982 28.5433 14.3908 28.5074 15.4031 28.5074V28.4714ZM13.4932 32.9116V32.9925L13.2067 32.7229L13.4932 32.9116ZM14.7728 37.7203C15.3405 38.219 15.7783 38.8342 16.0524 39.518C16.0569 39.5598 16.0569 39.602 16.0524 39.6438H14.6582H14.5914C14.6 39.0427 14.6446 38.4425 14.7251 37.8462L14.7728 37.7203ZM12.0417 39.4461C10.5043 39.3742 8.93817 39.3023 7.49623 39.2124C9.01485 38.7459 10.5697 38.3913 12.1467 38.1518C12.1181 38.6192 12.0512 39.0236 12.0512 39.482L12.0417 39.4461ZM13.9993 41.9448H14.5245H15.2598C15.1834 42.0886 15.1357 42.2144 15.0593 42.3583L13.8847 42.1515L13.9993 41.9448ZM12.4141 53.0633C13.8752 53.4498 15.8137 53.9621 16.5108 54.2048C16.5681 54.2946 16.6254 54.3845 16.6922 54.4744C15.9253 54.8788 15.1346 55.242 14.324 55.562L12.9011 56.1912C12.4156 55.8281 11.9879 55.4013 11.6311 54.9238C11.4638 54.5988 11.3768 54.2423 11.3768 53.8812C11.3768 53.52 11.4638 53.1636 11.6311 52.8386L12.4141 53.0633ZM25.3534 62.5099C25.3534 62.6357 25.4489 62.7706 25.5062 62.9054C23.9688 62.5728 22.46 62.1953 21.0467 61.7818C22.3454 62.0515 23.7778 62.2942 25.3534 62.5099ZM28.2182 62.8335C28.6957 62.8874 29.1827 62.9323 29.6793 62.9683C29.813 63.2379 29.9562 63.4986 30.0994 63.7593L28.4952 63.4896C28.3806 63.2739 28.2946 63.0132 28.1991 62.8335H28.2182ZM32.038 11.8612C32.1664 12.9895 32.2238 14.124 32.2099 15.2587C31.2044 14.4563 30.248 13.601 29.3451 12.6971C30.1949 12.3915 31.0926 12.1128 32.0093 11.8612H32.038ZM27.2633 14.1801C28.3451 15.2607 29.5135 16.2613 30.7584 17.1732L29.0681 18.7372C27.7987 20.002 26.4464 21.1907 25.0192 22.2965C24.2457 22.8538 23.4818 23.3841 22.7369 23.9054C21.6388 24.6784 20.5788 25.4244 19.5666 26.1884H19.3278H18.6498L17.6949 25.6222L18.3347 25.3345C20.3783 24.4357 22.4982 23.5369 23.8255 22.1617C23.9967 21.993 24.1279 21.7919 24.2102 21.5719C24.2925 21.3518 24.3241 21.1178 24.303 20.8854C24.2075 19.8517 23.1857 19.0877 22.0016 18.2428C21.7056 18.0271 21.2663 17.7125 20.9703 17.4608C22.6409 15.894 24.5938 14.6189 26.7381 13.6948L27.2633 14.1801ZM18.5448 16.3283C18.3919 16.4968 18.2774 16.693 18.2085 16.9048C18.1395 17.1166 18.1174 17.3395 18.1437 17.5597C18.2488 18.5574 19.2419 19.2765 20.3973 20.1124C20.7029 20.3371 21.1422 20.6606 21.4382 20.9213C20.1197 21.814 18.6932 22.5563 17.1888 23.1324C16.4917 23.438 15.7946 23.7436 15.1166 24.0312C14.4863 23.6268 13.9038 23.2403 13.4168 22.8718C14.0948 21.4516 14.7537 19.663 15.4699 17.6496C17.8987 15.1014 20.7337 12.9242 23.8733 11.196C24.2138 11.4184 24.5333 11.668 24.8282 11.9421C22.4568 13.0065 20.3289 14.4965 18.5639 16.3283H18.5448ZM5.56727 25.3795C5.63485 25.2164 5.72473 25.0623 5.83465 24.9211C6.16985 25.0405 6.49008 25.1942 6.78958 25.3795C7.60049 25.8926 8.53736 26.202 9.51113 26.2783C10.0203 26.2685 10.5207 26.1511 10.9752 25.9349C11.4298 25.7187 11.8269 25.409 12.1372 25.0289L12.7197 25.4424C12.3335 25.7126 11.9725 26.0133 11.6406 26.3412C9.73077 26.5929 8.16468 27.1861 7.67767 28.5703C7.00921 30.4578 9.30105 32.597 12.1945 35.3025L12.5287 35.6171V35.7249C7.59172 36.5429 4.66008 37.3338 4.14442 39.0326C3.50462 38.9697 2.94121 38.9068 2.55923 38.8349C2.64142 34.2103 3.66243 29.6431 5.56727 25.3795ZM11.9271 63.3728C10.5963 61.9184 9.38939 60.3677 8.31747 58.7348C6.26064 55.6045 4.72152 52.198 3.7529 48.6321C4.64331 48.359 5.5486 48.131 6.4649 47.9489C6.27733 48.4563 6.20755 48.9957 6.26027 49.5306C6.31298 50.0656 6.48696 50.5836 6.77048 51.0499C7.01876 51.4993 7.33389 51.706 9.22465 52.2453C8.93654 52.8975 8.81579 53.6044 8.8722 54.3087C8.92861 55.013 9.16059 55.6949 9.54933 56.299C9.92869 56.8134 10.3746 57.2814 10.8767 57.6922C10.7631 57.8515 10.6791 58.0277 10.6284 58.2135C10.5795 58.4648 10.5975 58.7236 10.6808 58.9667C10.7642 59.2098 10.9102 59.4297 11.1059 59.6067C12.1385 60.5135 13.3063 61.2736 14.5723 61.8627C14.0989 62.1026 13.6399 62.3666 13.1972 62.6537C12.7951 62.9252 12.3703 63.1657 11.9271 63.3728ZM25.1434 65.3052C23.711 65.3052 22.3645 66.4108 20.9321 67.5793C20.2774 68.1624 19.5606 68.6805 18.7931 69.1253C18.6642 68.2313 18.594 67.3308 18.583 66.4288C18.578 65.4167 18.4854 64.4067 18.306 63.4087C21.0586 64.3203 23.8764 65.0472 26.7381 65.5839C26.7858 65.6917 26.8431 65.8086 26.9004 65.9165C26.6712 65.7996 26.4612 65.6468 26.232 65.5389C25.8946 65.3791 25.521 65.2989 25.1434 65.3052ZM41.4345 76.1451C39.5917 76.0391 37.8444 75.3375 36.4879 74.1587C38.1003 74.5687 39.7643 74.7713 41.4345 74.7609C46.6797 74.7529 51.8645 73.707 56.6525 71.691C61.4405 69.6749 65.7246 66.7338 69.2268 63.0585C72.729 59.3832 75.371 55.0558 76.9815 50.3572C78.5919 45.6587 79.1347 40.6938 78.5747 35.785C78.0147 30.8762 76.3643 26.1331 73.7307 21.8634C71.0972 17.5938 67.5392 13.8931 63.2878 11.0015C59.0364 8.10986 54.1866 6.09195 49.053 5.0787C43.9194 4.06545 38.6169 4.07952 33.4895 5.11998C31.8947 5.44356 31.6751 7.10638 31.7992 9.39838C30.787 9.65904 29.7843 9.95565 28.7912 10.2972C28.3424 10.45 27.8363 10.6567 27.3397 10.8455C25.8405 9.47927 24.7614 8.72426 23.7683 8.72426C23.4633 8.72193 23.1633 8.79641 22.8993 8.93998C20.9613 10.0076 19.13 11.238 17.4275 12.6162C18.1151 11.0432 18.8313 9.74892 19.4902 9.32648C24.5166 6.09346 30.2794 4.01649 36.3145 3.2628C42.3496 2.5091 48.4884 3.09974 54.2367 4.98716C59.9849 6.87458 65.182 10.006 69.4096 14.1294C73.6372 18.2528 76.777 23.2529 78.5765 28.7272C80.3759 34.2015 80.7845 39.9969 79.7695 45.647C78.7545 51.2971 76.3442 56.6439 72.7327 61.257C69.1211 65.8701 64.4093 69.6206 58.9764 72.2065C53.5436 74.7924 47.5416 76.1414 41.4536 76.1451H41.4345Z" fill="#00BBE3"></path>
</svg>
