<svg width="270" height="138" viewBox="0 0 270 138" fill="none" xmlns="http://www.w3.org/2000/svg">
<g clip-path="url(#clip0_5_202)">
<path d="M138.588 23.182C138.588 22.4145 138.25 21.6922 137.64 21.2182C137.031 20.7216 136.196 20.5184 135.316 20.6087C131.683 21.0376 128.049 21.7825 124.551 22.8208C122.881 23.3174 121.866 24.8298 122.272 26.2518L130.938 54.7157C131.344 55.9121 132.269 56.8375 133.398 57.3341C134.12 57.6502 134.955 57.7856 135.79 57.6727C137.911 57.4244 139.356 55.3252 139.356 53.6548C139.356 51.9845 138.566 23.1594 138.566 23.1594L138.588 23.182ZM122.701 63.5867C120.895 63.5867 101.69 64.1285 101.69 64.1285C101.148 64.1285 100.675 64.3542 100.336 64.7831C99.9975 65.2119 99.8621 65.7763 99.9298 66.3857C100.223 68.8913 100.742 71.3968 101.442 73.8121C101.78 74.9633 102.818 75.663 103.811 75.3696L123.445 69.3879C124.28 69.117 124.912 68.4624 125.251 67.6949C125.476 67.1983 125.567 66.6114 125.499 66.0471C125.318 64.5799 124.167 63.5641 122.723 63.5867H122.701ZM100.043 25.9132C99.5687 25.4392 98.9368 25.2135 98.2598 25.2812C97.5827 25.3489 96.9508 25.7326 96.4769 26.3195C94.5135 28.8025 90.2031 34.6036 88.7136 37.3575C87.9915 38.6893 88.3074 40.2242 89.4132 40.8336C89.4132 40.8336 123.784 61.9389 124.28 62.2775C124.777 62.6161 126.379 62.7741 127.372 62.3678C128.004 62.1195 128.591 61.6906 129.042 61.1263C130.193 59.6817 129.9 57.8985 128.771 56.5215C128.162 55.7766 100.043 25.9132 100.043 25.9132ZM210.94 65.4151C210.354 60.4943 208.322 53.9934 206.923 49.2532C206.246 46.9959 204.193 45.619 202.274 46.1833L154.025 59.9977C152.4 60.5394 151.136 61.7809 150.481 63.3384C150.053 64.3316 149.872 65.4377 150.008 66.5663C150.346 69.4556 152.625 71.4645 155.446 71.3742C157.5 71.2839 207.465 69.8393 207.465 69.8393C208.503 69.8393 209.473 69.3879 210.128 68.5527C210.782 67.7175 211.076 66.5889 210.94 65.4151ZM190.155 19.2318C190.787 18.5997 191.103 17.742 190.99 16.8391C190.878 15.9362 190.381 15.0784 189.591 14.4464C186.251 11.8054 173.004 2.5507 169.28 0.519174C167.497 -0.451443 165.421 -0.0225655 164.609 1.46722L142.831 52.6842C142.177 54.016 142.177 55.5283 142.696 56.8601C143.034 57.7179 143.598 58.5079 144.366 59.1174C146.329 60.6523 149.24 59.9074 150.572 58.7336C151.903 57.5599 190.133 19.2318 190.133 19.2318H190.155Z" fill="#36B0C9"/>
<path d="M147.638 80.2452L128.839 81.893C128.094 81.9607 127.53 82.5928 127.553 83.3376L128.929 134.555C128.929 135.322 129.584 135.932 130.374 135.932L145.991 135.638C146.735 135.638 147.345 135.029 147.367 134.284L149.173 81.7124C149.195 80.8772 148.496 80.1775 147.638 80.2678V80.2452ZM24.1701 81.2158C26.2012 75.2115 41.6375 78.778 53.0567 84.8952C53.824 85.3015 54.7493 84.9403 55.0427 84.1277L61.2488 67.2886C61.497 66.634 61.2262 65.9343 60.6169 65.5731C49.1976 58.9594 6.49955 49.6821 0.451402 81.6447C-4.91971 109.499 44.4133 103.359 39.6064 115.887C37.4624 121.44 19.318 115.458 9.00456 109.86C8.25983 109.454 7.33455 109.793 7.0186 110.583C5.484 114.488 1.44438 124.826 0.0903188 128.234C-0.157926 128.889 0.0903188 129.611 0.699647 129.972C14.6916 138.031 56.0131 147.308 63.2122 114.691C69.3732 86.8364 20.5818 91.5315 24.1701 81.2384V81.2158ZM104.489 79.8841C99.4785 79.8841 94.807 81.8704 90.6996 84.6469C89.7518 85.2789 88.488 84.6243 88.488 83.4731L88.5783 61.6906C88.5783 60.878 87.9013 60.2234 87.0888 60.2686L69.328 61.4198C68.5833 61.4649 68.0191 62.0744 68.0191 62.8193L68.2448 134.306C68.2448 135.119 68.9218 135.751 69.7343 135.706L87.0663 134.848C87.811 134.803 88.3977 134.193 88.3977 133.449L88.5106 101.396C88.5106 100.922 88.7363 100.493 89.1425 100.222C96.1385 95.6397 101.826 96.2491 101.826 103.224L101.938 133.381C101.938 134.103 102.503 134.713 103.225 134.78L119.789 136.225C120.602 136.293 121.301 135.661 121.324 134.848L121.978 96.2943C121.978 86.5655 112.139 79.8389 104.534 79.8389L104.489 79.8841ZM243.302 79.9969C226.309 79.9969 212.543 92.6375 212.543 108.303C212.543 123.968 226.309 136.496 243.302 136.496C252.916 136.496 260.996 133.336 265.171 129.34C265.735 128.799 265.78 127.941 265.261 127.377L257.114 118.212C256.595 117.648 255.737 117.58 255.15 118.077C248.425 123.742 240.346 122.501 235.945 117.174C235.201 116.293 235.81 114.939 236.961 114.871L268.691 113.066C269.458 113.02 270.045 112.366 270.023 111.598C269.481 92.4569 257.949 79.9743 243.302 79.9743V79.9969ZM248.922 101.147L236.194 101.983C235.065 102.05 234.298 100.831 234.885 99.8607C236.6 97.0843 239.331 95.4139 242.648 95.4139C247.139 95.4139 249.147 96.9489 250.118 99.1158C250.524 100.019 249.915 101.057 248.944 101.125L248.922 101.147ZM191.735 80.9901C186.545 80.9901 181.76 83.0668 177.63 85.9786C176.683 86.6332 175.396 85.9786 175.396 84.85V82.525C175.396 81.7801 174.832 81.1707 174.087 81.1255L156.462 79.7712C155.627 79.7035 154.927 80.3807 154.95 81.1933L155.898 135.006C155.898 135.819 156.597 136.428 157.387 136.383L173.726 135.322C174.471 135.277 175.035 134.667 175.035 133.923L175.238 102.84C175.238 102.389 175.464 101.96 175.848 101.689C183.069 96.7457 189.005 97.152 189.005 104.353L189.636 133.629C189.636 134.351 190.223 134.938 190.945 135.006L206.878 136.248C207.691 136.315 208.39 135.683 208.39 134.871L209.135 97.4229C209.135 87.6941 199.295 80.9675 191.69 80.9675L191.735 80.9901Z" fill="#60269E"/>
</g>
<defs>
<clipPath id="clip0_5_202">
<rect width="270" height="137.647" fill="white"/>
</clipPath>
</defs>
</svg>
