<svg width="56" height="73" viewBox="0 0 56 73" fill="none" xmlns="http://www.w3.org/2000/svg">
<path d="M27.634 18.2203L0 0V61.4585H55.377V0.0273084L27.634 18.2203Z" fill="#6E0FEE"/>
<path d="M33.2931 44.6374H35.5151V35.5735H38.062V33.6641H30.7148V35.5735H33.2931V44.6374Z" fill="#F5F5F7"/>
<path d="M21.0583 42.7238H16.9749V40.1233H20.5908V38.2181H16.9749V35.5609H20.8172V33.6641H14.7383V44.6374H21.0583V42.7238Z" fill="#F5F5F7"/>
<path d="M4.79977 35.8928L6.97561 44.6374H8.92088L11.1051 35.9222V44.6374H13.1091V33.6641H9.98993L8.02371 41.8143L5.97574 33.6641H2.83984V44.6374H4.79977V35.8928Z" fill="#F5F5F7"/>
<path d="M8.84722 50.3078L5.13069 51.8727V47.0078H2.84375V57.9812H5.13069V54.2002L8.84722 52.6352V57.9812H11.1258V47.0078H8.84722V50.3078Z" fill="#F5F5F7"/>
<path d="M15.1436 53.4671H18.835V51.5724H15.1436V48.9256H19.0614V47.0078H12.8672V57.9812H19.3046V56.0592H15.1436V53.4671Z" fill="#F5F5F7"/>
<path d="M23.2113 47.0078L20.1719 57.9812H22.442L22.9137 56.1894L26.2131 54.8051L27.0453 57.9812H29.5062L26.3913 47.0078H23.2113ZM23.5782 53.6603L24.7478 49.2176L25.6807 52.7781L23.5782 53.6603Z" fill="#F5F5F7"/>
<path d="M27.9871 41.2408H27.9724L24.7065 33.6641H22.1094V44.6374H24.1154V37.0922H24.1301L27.4588 44.6374H29.9638V33.6641H27.9871V41.2408Z" fill="#F5F5F7"/>
<path d="M32.7121 47.0078H30.4336V57.9812H36.8228V56.0697H32.7121V47.0078Z" fill="#F5F5F7"/>
<path d="M35.3438 48.9193H38.1526V57.9812H40.4354V48.9193H43.2128V47.0078H35.3438V48.9193Z" fill="#F5F5F7"/>
<path d="M42.9314 33.6641H39.7934L36.8398 44.6374H39.0911L39.5544 42.8099L42.7238 41.4761L43.5204 44.6374H45.9603L42.9314 33.6641ZM40.1916 40.2893L41.311 35.8718L42.2103 39.4406L40.1916 40.2893Z" fill="#F5F5F7"/>
<path d="M50.2379 50.3876L46.5213 51.9526V47.0078H44.2344V57.9812H46.5213V54.2821L50.2379 52.7172V57.9812H52.5164V47.0078H50.2379V50.3876Z" fill="#F5F5F7"/>
<path d="M48.8779 42.7112V33.6641H46.6602V44.6374H52.5274V42.7112H48.8779Z" fill="#F5F5F7"/>
<path d="M0 72.8803V65.5977H4.00582V66.8244H1.4862V68.7653H3.7941V69.9731H1.4862V72.8803H0Z" fill="#6E0FEE"/>
<path d="M4.34766 69.2708C4.34766 67.0883 5.38107 65.4688 7.41018 65.4688C9.42671 65.4688 10.2799 67.0883 10.2799 69.13C10.2799 71.2012 9.51684 73.0014 7.26973 73.0014C5.47121 73.0035 4.34766 71.7852 4.34766 69.2708ZM8.78318 69.2414C8.78318 67.5021 8.29058 66.6871 7.36825 66.6871C6.43545 66.6871 5.86319 67.4916 5.86319 69.2414C5.86319 71.0626 6.38515 71.7873 7.31795 71.7873C8.3325 71.7852 8.78318 70.8693 8.78318 69.2414Z" fill="#6E0FEE"/>
<path d="M14.516 70.2024V65.5958H16.0022V70.3725C16.0022 72.1727 14.9981 72.9983 13.4218 72.9983C11.7553 72.9983 10.9336 72.2231 10.9336 70.4524V65.5938H12.4093V70.2003C12.4093 71.2359 12.5686 71.7799 13.4637 71.7799C14.3357 71.782 14.516 71.3304 14.516 70.2024Z" fill="#6E0FEE"/>
<path d="M18.2916 67.6793H18.2811V72.8803H16.9375V65.5977H18.6752L20.8427 70.8176H20.8511V65.5977H22.1759V72.8803H20.4989L18.2916 67.6793Z" fill="#6E0FEE"/>
<path d="M23.1797 65.5977H25.4373C27.697 65.5977 28.5103 66.9567 28.5103 69.1287C28.5103 71.4015 27.5859 72.8803 25.2989 72.8803H23.1797V65.5977ZM26.9633 69.219C26.9633 67.3684 26.4917 66.7551 25.2864 66.7551H24.6554V71.7229H25.1962C26.5713 71.7229 26.9633 70.7777 26.9633 69.219Z" fill="#6E0FEE"/>
<path d="M34.5009 72.8803H32.8764L32.3942 71.0801H30.4175L29.9752 72.8803H28.4492L30.4657 65.5977H32.2936L34.5009 72.8803ZM31.3608 67.0071L30.6481 69.8744H32.0945L31.3923 67.0071H31.3608Z" fill="#6E0FEE"/>
<path d="M35.4866 66.8682H33.6797V65.6016H38.7483V66.8682H36.9623V72.8821H35.4866V66.8682Z" fill="#6E0FEE"/>
<path d="M39.2422 72.8803V65.5977H40.7284V72.8803H39.2422Z" fill="#6E0FEE"/>
<path d="M41.4531 69.2708C41.4531 67.0883 42.4865 65.4688 44.5136 65.4688C46.5301 65.4688 47.3853 67.0883 47.3853 69.13C47.3853 71.2012 46.6223 73.0014 44.3752 73.0014C42.5788 73.0035 41.4531 71.7852 41.4531 69.2708ZM45.8908 69.2414C45.8908 67.5021 45.4002 66.6871 44.4758 66.6871C43.543 66.6871 42.9708 67.4916 42.9708 69.2414C42.9708 71.0626 43.4927 71.7873 44.4255 71.7873C45.438 71.7852 45.8908 70.8693 45.8908 69.2414Z" fill="#6E0FEE"/>
<path d="M49.4617 67.6793H49.4512V72.8803H48.1055V65.5977H49.8432L52.0107 70.8176H52.0211V65.5977H53.3459V72.8803H51.669L49.4617 67.6793Z" fill="#6E0FEE"/>
</svg>
